# xmcd
#
# Track frame offsets:
#	150
#	16700
#	29583
#	40860
#	53482
#	73749
#	93469
#	115986
#	134884
#	154350
#	171830
#	189655
#
# Disc length: 2748 seconds
#
# Revision: 0
# Processed by: cddbd v1.5.1PL0 Copyright (c) Steve Scherf et al.
# Submitted via: dBpowerAMP V4.0
#
DISCID=a80aba0c
DTITLE=Deena Russo - The Trouble With You
DYEAR=1900
DGENRE=Blues
TTITLE0=Daddio
TTITLE1=Down To Rio
TTITLE2=He's A Hottie
TTITLE3=Loosey Goosey
TTITLE4=Ain't Gonna Be Here
TTITLE5=The Trouble With You
TTITLE6=Beautiful Friend
TTITLE7=Blind Emotions
TTITLE8=Roulette With The Blues
TTITLE9=Wiskey Sour
TTITLE10=Birthday Suit
TTITLE11=Somebody At Home
EXTD=
EXTT0=
EXTT1=
EXTT2=
EXTT3=
EXTT4=
EXTT5=
EXTT6=
EXTT7=
EXTT8=
EXTT9=
EXTT10=
EXTT11=
PLAYORDER=
